<mxfile host="app.diagrams.net" modified="2024-02-27T05:43:09.137Z" agent="Mozilla/5.0 (Windows NT 10.0; Win64; x64) AppleWebKit/537.36 (KHTML, like Gecko) Chrome/121.0.0.0 Safari/537.36 OPR/107.0.0.0 (Edition Yx 05)" etag="6OAbVwpGP3WqQLVJqJRP" version="23.1.7" type="github">
  <diagram name="Страница — 1" id="seuOj2y7k8zDDkRaIZUc">
    <mxGraphModel dx="996" dy="559" grid="1" gridSize="10" guides="1" tooltips="1" connect="1" arrows="1" fold="1" page="1" pageScale="1" pageWidth="827" pageHeight="1169" math="0" shadow="0">
      <root>
        <mxCell id="0" />
        <mxCell id="1" parent="0" />
        <mxCell id="J5eXpDYhK6grdWMr7Jca-3" value="" style="edgeStyle=orthogonalEdgeStyle;rounded=0;orthogonalLoop=1;jettySize=auto;html=1;" edge="1" parent="1" source="J5eXpDYhK6grdWMr7Jca-1" target="J5eXpDYhK6grdWMr7Jca-2">
          <mxGeometry relative="1" as="geometry" />
        </mxCell>
        <mxCell id="J5eXpDYhK6grdWMr7Jca-1" value="начало" style="strokeWidth=2;html=1;shape=mxgraph.flowchart.terminator;whiteSpace=wrap;" vertex="1" parent="1">
          <mxGeometry x="364" y="10" width="100" height="60" as="geometry" />
        </mxCell>
        <mxCell id="J5eXpDYhK6grdWMr7Jca-6" value="" style="edgeStyle=orthogonalEdgeStyle;rounded=0;orthogonalLoop=1;jettySize=auto;html=1;" edge="1" parent="1" source="J5eXpDYhK6grdWMr7Jca-2" target="J5eXpDYhK6grdWMr7Jca-5">
          <mxGeometry relative="1" as="geometry" />
        </mxCell>
        <mxCell id="J5eXpDYhK6grdWMr7Jca-2" value="&lt;div&gt;int n, k, l, s, m;&lt;/div&gt;&lt;div&gt;srand(time(NULL));&lt;span style=&quot;&quot;&gt;&lt;/span&gt;&lt;/div&gt;" style="whiteSpace=wrap;html=1;strokeWidth=2;" vertex="1" parent="1">
          <mxGeometry x="354" y="150" width="120" height="60" as="geometry" />
        </mxCell>
        <mxCell id="J5eXpDYhK6grdWMr7Jca-4" value="&lt;div&gt;﻿#include&amp;lt;iostream&amp;gt;&lt;/div&gt;&lt;div&gt;#include &amp;lt;ctime&amp;gt;&lt;/div&gt;&lt;div&gt;using namespace std;&lt;/div&gt;&lt;div&gt;int main()&lt;/div&gt;&lt;div&gt;{&lt;/div&gt;&lt;div&gt;setlocale(LC_ALL, &quot;Russian&quot;);&lt;span style=&quot;&quot;&gt;&lt;/span&gt;&lt;/div&gt;" style="strokeWidth=2;html=1;shape=mxgraph.flowchart.annotation_2;align=left;labelPosition=right;pointerEvents=1;dashed=1;" vertex="1" parent="1">
          <mxGeometry x="414" y="60" width="136" height="100" as="geometry" />
        </mxCell>
        <mxCell id="J5eXpDYhK6grdWMr7Jca-8" value="" style="edgeStyle=orthogonalEdgeStyle;rounded=0;orthogonalLoop=1;jettySize=auto;html=1;" edge="1" parent="1" source="J5eXpDYhK6grdWMr7Jca-5" target="J5eXpDYhK6grdWMr7Jca-7">
          <mxGeometry relative="1" as="geometry" />
        </mxCell>
        <mxCell id="J5eXpDYhK6grdWMr7Jca-5" value="&lt;div&gt;cout &amp;lt;&amp;lt; &quot;Колво элементов массива = &quot;;&lt;/div&gt;&lt;div&gt;cin &amp;gt;&amp;gt; n;&lt;span style=&quot;&quot;&gt;&lt;/span&gt;&lt;/div&gt;" style="shape=parallelogram;perimeter=parallelogramPerimeter;whiteSpace=wrap;html=1;fixedSize=1;strokeWidth=2;" vertex="1" parent="1">
          <mxGeometry x="326" y="250" width="176" height="90" as="geometry" />
        </mxCell>
        <mxCell id="J5eXpDYhK6grdWMr7Jca-10" value="" style="edgeStyle=orthogonalEdgeStyle;rounded=0;orthogonalLoop=1;jettySize=auto;html=1;" edge="1" parent="1" source="J5eXpDYhK6grdWMr7Jca-7" target="J5eXpDYhK6grdWMr7Jca-9">
          <mxGeometry relative="1" as="geometry" />
        </mxCell>
        <mxCell id="J5eXpDYhK6grdWMr7Jca-7" value="int* arr = new int[n];" style="whiteSpace=wrap;html=1;strokeWidth=2;" vertex="1" parent="1">
          <mxGeometry x="354" y="370" width="120" height="60" as="geometry" />
        </mxCell>
        <mxCell id="J5eXpDYhK6grdWMr7Jca-12" value="" style="edgeStyle=orthogonalEdgeStyle;rounded=0;orthogonalLoop=1;jettySize=auto;html=1;" edge="1" parent="1" source="J5eXpDYhK6grdWMr7Jca-9" target="J5eXpDYhK6grdWMr7Jca-11">
          <mxGeometry relative="1" as="geometry" />
        </mxCell>
        <mxCell id="J5eXpDYhK6grdWMr7Jca-9" value="&lt;div&gt;cout &amp;lt;&amp;lt; &quot;k: &quot;;&lt;/div&gt;&lt;div&gt;cin &amp;gt;&amp;gt; k;&lt;span style=&quot;&quot;&gt;&lt;/span&gt;&lt;/div&gt;" style="shape=parallelogram;perimeter=parallelogramPerimeter;whiteSpace=wrap;html=1;fixedSize=1;strokeWidth=2;" vertex="1" parent="1">
          <mxGeometry x="354" y="460" width="120" height="60" as="geometry" />
        </mxCell>
        <mxCell id="J5eXpDYhK6grdWMr7Jca-14" value="" style="edgeStyle=orthogonalEdgeStyle;rounded=0;orthogonalLoop=1;jettySize=auto;html=1;" edge="1" parent="1" source="J5eXpDYhK6grdWMr7Jca-11" target="J5eXpDYhK6grdWMr7Jca-13">
          <mxGeometry relative="1" as="geometry" />
        </mxCell>
        <mxCell id="J5eXpDYhK6grdWMr7Jca-19" value="" style="edgeStyle=orthogonalEdgeStyle;rounded=0;orthogonalLoop=1;jettySize=auto;html=1;" edge="1" parent="1" source="J5eXpDYhK6grdWMr7Jca-11" target="J5eXpDYhK6grdWMr7Jca-18">
          <mxGeometry relative="1" as="geometry" />
        </mxCell>
        <mxCell id="J5eXpDYhK6grdWMr7Jca-11" value="for (int i = 0; i &amp;lt; n; i++)" style="shape=hexagon;perimeter=hexagonPerimeter2;whiteSpace=wrap;html=1;fixedSize=1;strokeWidth=2;" vertex="1" parent="1">
          <mxGeometry x="347" y="550" width="134" height="80" as="geometry" />
        </mxCell>
        <mxCell id="J5eXpDYhK6grdWMr7Jca-16" value="" style="edgeStyle=orthogonalEdgeStyle;rounded=0;orthogonalLoop=1;jettySize=auto;html=1;" edge="1" parent="1" source="J5eXpDYhK6grdWMr7Jca-13" target="J5eXpDYhK6grdWMr7Jca-15">
          <mxGeometry relative="1" as="geometry" />
        </mxCell>
        <mxCell id="J5eXpDYhK6grdWMr7Jca-13" value="arr[i] = rand();" style="whiteSpace=wrap;html=1;strokeWidth=2;" vertex="1" parent="1">
          <mxGeometry x="354" y="670" width="120" height="60" as="geometry" />
        </mxCell>
        <mxCell id="J5eXpDYhK6grdWMr7Jca-17" style="edgeStyle=orthogonalEdgeStyle;rounded=0;orthogonalLoop=1;jettySize=auto;html=1;exitX=0.5;exitY=1;exitDx=0;exitDy=0;entryX=0;entryY=0.5;entryDx=0;entryDy=0;" edge="1" parent="1" source="J5eXpDYhK6grdWMr7Jca-15" target="J5eXpDYhK6grdWMr7Jca-11">
          <mxGeometry relative="1" as="geometry" />
        </mxCell>
        <mxCell id="J5eXpDYhK6grdWMr7Jca-15" value="cout &amp;lt;&amp;lt; arr[i] &amp;lt;&amp;lt; &quot; &quot;;" style="shape=parallelogram;perimeter=parallelogramPerimeter;whiteSpace=wrap;html=1;fixedSize=1;strokeWidth=2;" vertex="1" parent="1">
          <mxGeometry x="347" y="760" width="136" height="60" as="geometry" />
        </mxCell>
        <mxCell id="J5eXpDYhK6grdWMr7Jca-21" value="" style="edgeStyle=orthogonalEdgeStyle;rounded=0;orthogonalLoop=1;jettySize=auto;html=1;" edge="1" parent="1" source="J5eXpDYhK6grdWMr7Jca-18" target="J5eXpDYhK6grdWMr7Jca-20">
          <mxGeometry relative="1" as="geometry" />
        </mxCell>
        <mxCell id="J5eXpDYhK6grdWMr7Jca-18" value="&lt;div&gt;cout &amp;lt;&amp;lt; endl;&lt;/div&gt;&lt;div&gt;int* mass = new int[n - k];&lt;span style=&quot;&quot;&gt;&lt;/span&gt;&lt;/div&gt;" style="whiteSpace=wrap;html=1;strokeWidth=2;" vertex="1" parent="1">
          <mxGeometry x="568" y="670" width="120" height="60" as="geometry" />
        </mxCell>
        <mxCell id="J5eXpDYhK6grdWMr7Jca-23" value="" style="edgeStyle=orthogonalEdgeStyle;rounded=0;orthogonalLoop=1;jettySize=auto;html=1;" edge="1" parent="1" source="J5eXpDYhK6grdWMr7Jca-20" target="J5eXpDYhK6grdWMr7Jca-22">
          <mxGeometry relative="1" as="geometry" />
        </mxCell>
        <mxCell id="J5eXpDYhK6grdWMr7Jca-26" value="" style="edgeStyle=orthogonalEdgeStyle;rounded=0;orthogonalLoop=1;jettySize=auto;html=1;" edge="1" parent="1" source="J5eXpDYhK6grdWMr7Jca-20" target="J5eXpDYhK6grdWMr7Jca-25">
          <mxGeometry relative="1" as="geometry" />
        </mxCell>
        <mxCell id="J5eXpDYhK6grdWMr7Jca-20" value="for (int i = 0; i &amp;lt; k; i++)" style="shape=hexagon;perimeter=hexagonPerimeter2;whiteSpace=wrap;html=1;fixedSize=1;strokeWidth=2;" vertex="1" parent="1">
          <mxGeometry x="557" y="790" width="142" height="80" as="geometry" />
        </mxCell>
        <mxCell id="J5eXpDYhK6grdWMr7Jca-24" style="edgeStyle=orthogonalEdgeStyle;rounded=0;orthogonalLoop=1;jettySize=auto;html=1;exitX=0.5;exitY=1;exitDx=0;exitDy=0;entryX=0;entryY=0.5;entryDx=0;entryDy=0;" edge="1" parent="1" source="J5eXpDYhK6grdWMr7Jca-22" target="J5eXpDYhK6grdWMr7Jca-20">
          <mxGeometry relative="1" as="geometry" />
        </mxCell>
        <mxCell id="J5eXpDYhK6grdWMr7Jca-22" value="mass[i] = arr[i];" style="whiteSpace=wrap;html=1;strokeWidth=2;" vertex="1" parent="1">
          <mxGeometry x="568" y="930" width="120" height="60" as="geometry" />
        </mxCell>
        <mxCell id="J5eXpDYhK6grdWMr7Jca-28" value="" style="edgeStyle=orthogonalEdgeStyle;rounded=0;orthogonalLoop=1;jettySize=auto;html=1;" edge="1" parent="1" source="J5eXpDYhK6grdWMr7Jca-25" target="J5eXpDYhK6grdWMr7Jca-27">
          <mxGeometry relative="1" as="geometry" />
        </mxCell>
        <mxCell id="J5eXpDYhK6grdWMr7Jca-31" value="" style="edgeStyle=orthogonalEdgeStyle;rounded=0;orthogonalLoop=1;jettySize=auto;html=1;" edge="1" parent="1" source="J5eXpDYhK6grdWMr7Jca-25" target="J5eXpDYhK6grdWMr7Jca-30">
          <mxGeometry relative="1" as="geometry" />
        </mxCell>
        <mxCell id="J5eXpDYhK6grdWMr7Jca-25" value="for (int i = k-1; i &amp;lt; n ; i++)" style="shape=hexagon;perimeter=hexagonPerimeter2;whiteSpace=wrap;html=1;fixedSize=1;strokeWidth=2;" vertex="1" parent="1">
          <mxGeometry x="750" y="920" width="120" height="80" as="geometry" />
        </mxCell>
        <mxCell id="J5eXpDYhK6grdWMr7Jca-29" style="edgeStyle=orthogonalEdgeStyle;rounded=0;orthogonalLoop=1;jettySize=auto;html=1;exitX=0.5;exitY=1;exitDx=0;exitDy=0;entryX=0;entryY=0.5;entryDx=0;entryDy=0;" edge="1" parent="1" source="J5eXpDYhK6grdWMr7Jca-27" target="J5eXpDYhK6grdWMr7Jca-25">
          <mxGeometry relative="1" as="geometry" />
        </mxCell>
        <mxCell id="J5eXpDYhK6grdWMr7Jca-27" value="mass[i] = arr[i + k-1];" style="whiteSpace=wrap;html=1;strokeWidth=2;" vertex="1" parent="1">
          <mxGeometry x="750" y="1050" width="120" height="60" as="geometry" />
        </mxCell>
        <mxCell id="J5eXpDYhK6grdWMr7Jca-33" value="" style="edgeStyle=orthogonalEdgeStyle;rounded=0;orthogonalLoop=1;jettySize=auto;html=1;" edge="1" parent="1" source="J5eXpDYhK6grdWMr7Jca-30" target="J5eXpDYhK6grdWMr7Jca-32">
          <mxGeometry relative="1" as="geometry" />
        </mxCell>
        <mxCell id="J5eXpDYhK6grdWMr7Jca-30" value="n--;" style="whiteSpace=wrap;html=1;strokeWidth=2;" vertex="1" parent="1">
          <mxGeometry x="920" y="1050" width="120" height="60" as="geometry" />
        </mxCell>
        <mxCell id="J5eXpDYhK6grdWMr7Jca-35" value="" style="edgeStyle=orthogonalEdgeStyle;rounded=0;orthogonalLoop=1;jettySize=auto;html=1;" edge="1" parent="1" source="J5eXpDYhK6grdWMr7Jca-32" target="J5eXpDYhK6grdWMr7Jca-34">
          <mxGeometry relative="1" as="geometry" />
        </mxCell>
        <mxCell id="J5eXpDYhK6grdWMr7Jca-38" value="" style="edgeStyle=orthogonalEdgeStyle;rounded=0;orthogonalLoop=1;jettySize=auto;html=1;" edge="1" parent="1" source="J5eXpDYhK6grdWMr7Jca-32" target="J5eXpDYhK6grdWMr7Jca-37">
          <mxGeometry relative="1" as="geometry" />
        </mxCell>
        <mxCell id="J5eXpDYhK6grdWMr7Jca-32" value="for (int i = 0; i &amp;lt; n; i++)" style="shape=hexagon;perimeter=hexagonPerimeter2;whiteSpace=wrap;html=1;fixedSize=1;strokeWidth=2;" vertex="1" parent="1">
          <mxGeometry x="910" y="1150" width="140" height="80" as="geometry" />
        </mxCell>
        <mxCell id="J5eXpDYhK6grdWMr7Jca-36" style="edgeStyle=orthogonalEdgeStyle;rounded=0;orthogonalLoop=1;jettySize=auto;html=1;exitX=0.5;exitY=1;exitDx=0;exitDy=0;entryX=0;entryY=0.5;entryDx=0;entryDy=0;" edge="1" parent="1" source="J5eXpDYhK6grdWMr7Jca-34" target="J5eXpDYhK6grdWMr7Jca-32">
          <mxGeometry relative="1" as="geometry" />
        </mxCell>
        <mxCell id="J5eXpDYhK6grdWMr7Jca-34" value="cout &amp;lt;&amp;lt; mass[i] &amp;lt;&amp;lt; &#39; &#39;;" style="shape=parallelogram;perimeter=parallelogramPerimeter;whiteSpace=wrap;html=1;fixedSize=1;strokeWidth=2;" vertex="1" parent="1">
          <mxGeometry x="910" y="1280" width="140" height="60" as="geometry" />
        </mxCell>
        <mxCell id="J5eXpDYhK6grdWMr7Jca-40" value="" style="edgeStyle=orthogonalEdgeStyle;rounded=0;orthogonalLoop=1;jettySize=auto;html=1;" edge="1" parent="1" source="J5eXpDYhK6grdWMr7Jca-37" target="J5eXpDYhK6grdWMr7Jca-39">
          <mxGeometry relative="1" as="geometry" />
        </mxCell>
        <mxCell id="J5eXpDYhK6grdWMr7Jca-37" value="delete[] arr;" style="whiteSpace=wrap;html=1;strokeWidth=2;" vertex="1" parent="1">
          <mxGeometry x="1110" y="1280" width="120" height="60" as="geometry" />
        </mxCell>
        <mxCell id="J5eXpDYhK6grdWMr7Jca-42" value="" style="edgeStyle=orthogonalEdgeStyle;rounded=0;orthogonalLoop=1;jettySize=auto;html=1;" edge="1" parent="1" source="J5eXpDYhK6grdWMr7Jca-39" target="J5eXpDYhK6grdWMr7Jca-41">
          <mxGeometry relative="1" as="geometry" />
        </mxCell>
        <mxCell id="J5eXpDYhK6grdWMr7Jca-39" value="&lt;div&gt;cout &amp;lt;&amp;lt; endl;&lt;/div&gt;&lt;div&gt;cout &amp;lt;&amp;lt; &quot;Введите номер, куда нужно вставить элемент: &quot;;&lt;span style=&quot;&quot;&gt;&lt;/span&gt;&lt;/div&gt;&lt;div&gt;&lt;span style=&quot;&quot;&gt;&lt;span style=&quot;&quot;&gt;&lt;span style=&quot;white-space: pre;&quot;&gt;&amp;nbsp;&amp;nbsp;&amp;nbsp;&amp;nbsp;&lt;/span&gt;&lt;/span&gt;cin &amp;gt;&amp;gt; l;&lt;/span&gt;&lt;/div&gt;&lt;div&gt;&lt;span style=&quot;&quot;&gt;&lt;span style=&quot;&quot;&gt;&lt;span style=&quot;white-space: pre;&quot;&gt;&amp;nbsp;&amp;nbsp;&amp;nbsp;&amp;nbsp;&lt;/span&gt;&lt;/span&gt;cout &amp;lt;&amp;lt; &quot;Введите значение элемента: &quot;;&lt;/span&gt;&lt;/div&gt;&lt;div&gt;&lt;span style=&quot;&quot;&gt;&lt;span style=&quot;&quot;&gt;&lt;span style=&quot;white-space: pre;&quot;&gt;&amp;nbsp;&amp;nbsp;&amp;nbsp;&amp;nbsp;&lt;/span&gt;&lt;/span&gt;cin &amp;gt;&amp;gt; s;&lt;/span&gt;&lt;/div&gt;" style="shape=parallelogram;perimeter=parallelogramPerimeter;whiteSpace=wrap;html=1;fixedSize=1;strokeWidth=2;" vertex="1" parent="1">
          <mxGeometry x="1090" y="1380" width="160" height="150" as="geometry" />
        </mxCell>
        <mxCell id="J5eXpDYhK6grdWMr7Jca-44" value="" style="edgeStyle=orthogonalEdgeStyle;rounded=0;orthogonalLoop=1;jettySize=auto;html=1;" edge="1" parent="1" source="J5eXpDYhK6grdWMr7Jca-41" target="J5eXpDYhK6grdWMr7Jca-43">
          <mxGeometry relative="1" as="geometry" />
        </mxCell>
        <mxCell id="J5eXpDYhK6grdWMr7Jca-41" value="int*&amp;nbsp; itog= new int[n - k + 1];" style="whiteSpace=wrap;html=1;strokeWidth=2;" vertex="1" parent="1">
          <mxGeometry x="1110" y="1570" width="120" height="60" as="geometry" />
        </mxCell>
        <mxCell id="J5eXpDYhK6grdWMr7Jca-46" value="" style="edgeStyle=orthogonalEdgeStyle;rounded=0;orthogonalLoop=1;jettySize=auto;html=1;" edge="1" parent="1" source="J5eXpDYhK6grdWMr7Jca-43" target="J5eXpDYhK6grdWMr7Jca-45">
          <mxGeometry relative="1" as="geometry" />
        </mxCell>
        <mxCell id="J5eXpDYhK6grdWMr7Jca-49" value="" style="edgeStyle=orthogonalEdgeStyle;rounded=0;orthogonalLoop=1;jettySize=auto;html=1;" edge="1" parent="1" source="J5eXpDYhK6grdWMr7Jca-43" target="J5eXpDYhK6grdWMr7Jca-48">
          <mxGeometry relative="1" as="geometry" />
        </mxCell>
        <mxCell id="J5eXpDYhK6grdWMr7Jca-43" value="for (int i = 0; i &amp;lt; l; i++)" style="shape=hexagon;perimeter=hexagonPerimeter2;whiteSpace=wrap;html=1;fixedSize=1;strokeWidth=2;" vertex="1" parent="1">
          <mxGeometry x="1100" y="1674" width="140" height="80" as="geometry" />
        </mxCell>
        <mxCell id="J5eXpDYhK6grdWMr7Jca-45" value="itog[i] = mass[i];" style="whiteSpace=wrap;html=1;strokeWidth=2;" vertex="1" parent="1">
          <mxGeometry x="1110" y="1790" width="120" height="60" as="geometry" />
        </mxCell>
        <mxCell id="J5eXpDYhK6grdWMr7Jca-47" style="edgeStyle=orthogonalEdgeStyle;rounded=0;orthogonalLoop=1;jettySize=auto;html=1;exitX=0.5;exitY=1;exitDx=0;exitDy=0;entryX=0;entryY=0.5;entryDx=0;entryDy=0;" edge="1" parent="1" source="J5eXpDYhK6grdWMr7Jca-45" target="J5eXpDYhK6grdWMr7Jca-43">
          <mxGeometry relative="1" as="geometry" />
        </mxCell>
        <mxCell id="J5eXpDYhK6grdWMr7Jca-51" value="" style="edgeStyle=orthogonalEdgeStyle;rounded=0;orthogonalLoop=1;jettySize=auto;html=1;" edge="1" parent="1" source="J5eXpDYhK6grdWMr7Jca-48" target="J5eXpDYhK6grdWMr7Jca-50">
          <mxGeometry relative="1" as="geometry" />
        </mxCell>
        <mxCell id="J5eXpDYhK6grdWMr7Jca-48" value="itog[l] = s;" style="whiteSpace=wrap;html=1;strokeWidth=2;" vertex="1" parent="1">
          <mxGeometry x="1310" y="1790" width="120" height="60" as="geometry" />
        </mxCell>
        <mxCell id="J5eXpDYhK6grdWMr7Jca-53" value="" style="edgeStyle=orthogonalEdgeStyle;rounded=0;orthogonalLoop=1;jettySize=auto;html=1;" edge="1" parent="1" source="J5eXpDYhK6grdWMr7Jca-50" target="J5eXpDYhK6grdWMr7Jca-52">
          <mxGeometry relative="1" as="geometry" />
        </mxCell>
        <mxCell id="J5eXpDYhK6grdWMr7Jca-56" value="" style="edgeStyle=orthogonalEdgeStyle;rounded=0;orthogonalLoop=1;jettySize=auto;html=1;" edge="1" parent="1" source="J5eXpDYhK6grdWMr7Jca-50" target="J5eXpDYhK6grdWMr7Jca-55">
          <mxGeometry relative="1" as="geometry" />
        </mxCell>
        <mxCell id="J5eXpDYhK6grdWMr7Jca-50" value="for (int i = l + 1; i &amp;lt; n - k + 1; i++)" style="shape=hexagon;perimeter=hexagonPerimeter2;whiteSpace=wrap;html=1;fixedSize=1;strokeWidth=2;" vertex="1" parent="1">
          <mxGeometry x="1275" y="1890" width="190" height="80" as="geometry" />
        </mxCell>
        <mxCell id="J5eXpDYhK6grdWMr7Jca-54" style="edgeStyle=orthogonalEdgeStyle;rounded=0;orthogonalLoop=1;jettySize=auto;html=1;exitX=0.5;exitY=1;exitDx=0;exitDy=0;entryX=0;entryY=0.5;entryDx=0;entryDy=0;" edge="1" parent="1" source="J5eXpDYhK6grdWMr7Jca-52" target="J5eXpDYhK6grdWMr7Jca-50">
          <mxGeometry relative="1" as="geometry" />
        </mxCell>
        <mxCell id="J5eXpDYhK6grdWMr7Jca-52" value="itog[i+1] = mass[i];" style="whiteSpace=wrap;html=1;strokeWidth=2;" vertex="1" parent="1">
          <mxGeometry x="1310" y="2040" width="120" height="60" as="geometry" />
        </mxCell>
        <mxCell id="J5eXpDYhK6grdWMr7Jca-58" value="" style="edgeStyle=orthogonalEdgeStyle;rounded=0;orthogonalLoop=1;jettySize=auto;html=1;" edge="1" parent="1" source="J5eXpDYhK6grdWMr7Jca-55" target="J5eXpDYhK6grdWMr7Jca-57">
          <mxGeometry relative="1" as="geometry" />
        </mxCell>
        <mxCell id="J5eXpDYhK6grdWMr7Jca-55" value="delete[] mass;" style="whiteSpace=wrap;html=1;strokeWidth=2;" vertex="1" parent="1">
          <mxGeometry x="1520" y="2040" width="120" height="60" as="geometry" />
        </mxCell>
        <mxCell id="J5eXpDYhK6grdWMr7Jca-60" value="" style="edgeStyle=orthogonalEdgeStyle;rounded=0;orthogonalLoop=1;jettySize=auto;html=1;" edge="1" parent="1" source="J5eXpDYhK6grdWMr7Jca-57" target="J5eXpDYhK6grdWMr7Jca-59">
          <mxGeometry relative="1" as="geometry" />
        </mxCell>
        <mxCell id="J5eXpDYhK6grdWMr7Jca-63" value="" style="edgeStyle=orthogonalEdgeStyle;rounded=0;orthogonalLoop=1;jettySize=auto;html=1;" edge="1" parent="1" source="J5eXpDYhK6grdWMr7Jca-57" target="J5eXpDYhK6grdWMr7Jca-62">
          <mxGeometry relative="1" as="geometry" />
        </mxCell>
        <mxCell id="J5eXpDYhK6grdWMr7Jca-57" value="for (int i = 0; i &amp;lt; n - k + 1; i++)" style="shape=hexagon;perimeter=hexagonPerimeter2;whiteSpace=wrap;html=1;fixedSize=1;strokeWidth=2;" vertex="1" parent="1">
          <mxGeometry x="1495" y="2140" width="170" height="80" as="geometry" />
        </mxCell>
        <mxCell id="J5eXpDYhK6grdWMr7Jca-61" style="edgeStyle=orthogonalEdgeStyle;rounded=0;orthogonalLoop=1;jettySize=auto;html=1;exitX=0.5;exitY=1;exitDx=0;exitDy=0;entryX=0;entryY=0.5;entryDx=0;entryDy=0;" edge="1" parent="1" source="J5eXpDYhK6grdWMr7Jca-59" target="J5eXpDYhK6grdWMr7Jca-57">
          <mxGeometry relative="1" as="geometry" />
        </mxCell>
        <mxCell id="J5eXpDYhK6grdWMr7Jca-59" value="cout &amp;lt;&amp;lt; itog[i] &amp;lt;&amp;lt; &quot; &quot;;" style="shape=parallelogram;perimeter=parallelogramPerimeter;whiteSpace=wrap;html=1;fixedSize=1;strokeWidth=2;" vertex="1" parent="1">
          <mxGeometry x="1510" y="2270" width="140" height="60" as="geometry" />
        </mxCell>
        <mxCell id="J5eXpDYhK6grdWMr7Jca-65" style="edgeStyle=orthogonalEdgeStyle;rounded=0;orthogonalLoop=1;jettySize=auto;html=1;exitX=0.5;exitY=1;exitDx=0;exitDy=0;" edge="1" parent="1" source="J5eXpDYhK6grdWMr7Jca-62" target="J5eXpDYhK6grdWMr7Jca-64">
          <mxGeometry relative="1" as="geometry" />
        </mxCell>
        <mxCell id="J5eXpDYhK6grdWMr7Jca-62" value="delete[] itog;" style="whiteSpace=wrap;html=1;strokeWidth=2;" vertex="1" parent="1">
          <mxGeometry x="1710" y="2270" width="120" height="60" as="geometry" />
        </mxCell>
        <mxCell id="J5eXpDYhK6grdWMr7Jca-64" value="конец" style="strokeWidth=2;html=1;shape=mxgraph.flowchart.terminator;whiteSpace=wrap;" vertex="1" parent="1">
          <mxGeometry x="1720" y="2410" width="100" height="60" as="geometry" />
        </mxCell>
        <mxCell id="J5eXpDYhK6grdWMr7Jca-66" value="&lt;div&gt;return 0;&lt;/div&gt;&lt;div&gt;}&lt;/div&gt;" style="strokeWidth=2;html=1;shape=mxgraph.flowchart.annotation_2;align=left;labelPosition=right;pointerEvents=1;dashed=1;" vertex="1" parent="1">
          <mxGeometry x="1770" y="2370" width="50" height="30" as="geometry" />
        </mxCell>
        <mxCell id="J5eXpDYhK6grdWMr7Jca-67" value="True" style="text;html=1;align=center;verticalAlign=middle;whiteSpace=wrap;rounded=0;" vertex="1" parent="1">
          <mxGeometry x="1520" y="2220" width="60" height="30" as="geometry" />
        </mxCell>
        <mxCell id="J5eXpDYhK6grdWMr7Jca-68" value="False" style="text;html=1;align=center;verticalAlign=middle;whiteSpace=wrap;rounded=0;" vertex="1" parent="1">
          <mxGeometry x="1710" y="2150" width="60" height="30" as="geometry" />
        </mxCell>
        <mxCell id="J5eXpDYhK6grdWMr7Jca-69" value="True" style="text;html=1;align=center;verticalAlign=middle;whiteSpace=wrap;rounded=0;" vertex="1" parent="1">
          <mxGeometry x="1310" y="1970" width="60" height="30" as="geometry" />
        </mxCell>
        <mxCell id="J5eXpDYhK6grdWMr7Jca-70" value="False" style="text;html=1;align=center;verticalAlign=middle;whiteSpace=wrap;rounded=0;" vertex="1" parent="1">
          <mxGeometry x="1520" y="1900" width="60" height="30" as="geometry" />
        </mxCell>
        <mxCell id="J5eXpDYhK6grdWMr7Jca-71" value="False" style="text;html=1;align=center;verticalAlign=middle;whiteSpace=wrap;rounded=0;" vertex="1" parent="1">
          <mxGeometry x="1310" y="1680" width="60" height="30" as="geometry" />
        </mxCell>
        <mxCell id="J5eXpDYhK6grdWMr7Jca-72" value="True" style="text;html=1;align=center;verticalAlign=middle;whiteSpace=wrap;rounded=0;" vertex="1" parent="1">
          <mxGeometry x="1110" y="1754" width="60" height="30" as="geometry" />
        </mxCell>
        <mxCell id="J5eXpDYhK6grdWMr7Jca-73" value="False" style="text;html=1;align=center;verticalAlign=middle;whiteSpace=wrap;rounded=0;" vertex="1" parent="1">
          <mxGeometry x="1110" y="1160" width="60" height="30" as="geometry" />
        </mxCell>
        <mxCell id="J5eXpDYhK6grdWMr7Jca-74" value="True" style="text;html=1;align=center;verticalAlign=middle;whiteSpace=wrap;rounded=0;" vertex="1" parent="1">
          <mxGeometry x="920" y="1240" width="60" height="30" as="geometry" />
        </mxCell>
        <mxCell id="J5eXpDYhK6grdWMr7Jca-75" value="False" style="text;html=1;align=center;verticalAlign=middle;whiteSpace=wrap;rounded=0;" vertex="1" parent="1">
          <mxGeometry x="920" y="930" width="60" height="30" as="geometry" />
        </mxCell>
        <mxCell id="J5eXpDYhK6grdWMr7Jca-76" value="False" style="text;html=1;align=center;verticalAlign=middle;whiteSpace=wrap;rounded=0;" vertex="1" parent="1">
          <mxGeometry x="750" y="800" width="60" height="30" as="geometry" />
        </mxCell>
        <mxCell id="J5eXpDYhK6grdWMr7Jca-77" value="True" style="text;html=1;align=center;verticalAlign=middle;whiteSpace=wrap;rounded=0;" vertex="1" parent="1">
          <mxGeometry x="750" y="1010" width="60" height="30" as="geometry" />
        </mxCell>
        <mxCell id="J5eXpDYhK6grdWMr7Jca-78" value="True" style="text;html=1;align=center;verticalAlign=middle;whiteSpace=wrap;rounded=0;" vertex="1" parent="1">
          <mxGeometry x="568" y="880" width="60" height="30" as="geometry" />
        </mxCell>
        <mxCell id="J5eXpDYhK6grdWMr7Jca-79" value="False" style="text;html=1;align=center;verticalAlign=middle;whiteSpace=wrap;rounded=0;" vertex="1" parent="1">
          <mxGeometry x="568" y="560" width="60" height="30" as="geometry" />
        </mxCell>
        <mxCell id="J5eXpDYhK6grdWMr7Jca-80" value="True" style="text;html=1;align=center;verticalAlign=middle;whiteSpace=wrap;rounded=0;" vertex="1" parent="1">
          <mxGeometry x="354" y="630" width="60" height="30" as="geometry" />
        </mxCell>
      </root>
    </mxGraphModel>
  </diagram>
</mxfile>
